<svg width="20" height="16" viewBox="0 0 20 16" fill="none" xmlns="http://www.w3.org/2000/svg">
<path d="M18.5 0C19.3284 0 20 0.671573 20 1.5V5.17383C18.8353 5.58594 18 6.69415 18 8C18 9.30574 18.8355 10.413 20 10.8252V14.5C20 15.3284 19.3284 16 18.5 16H1.5C0.671573 16 0 15.3284 0 14.5V10.8252C1.16452 10.413 2 9.30574 2 8C2 6.69415 1.16468 5.58594 0 5.17383V1.5C0 0.671573 0.671573 3.22128e-08 1.5 0H18.5ZM10.4961 4.72559C10.2579 4.37685 9.74312 4.37685 9.50488 4.72559L8.71289 5.88477C8.63478 5.99905 8.51952 6.08304 8.38672 6.12207L7.03906 6.5166C6.63399 6.63539 6.47485 7.12467 6.73242 7.45898L7.59082 8.57129C7.67529 8.68095 7.71984 8.8167 7.71582 8.95508L7.6748 10.3584C7.66273 10.7804 8.07894 11.0825 8.47656 10.9404L9.79883 10.4688C9.92932 10.4222 10.0717 10.4221 10.2021 10.4688L11.5244 10.9404C11.922 11.0825 12.3382 10.7804 12.3262 10.3584L12.2852 8.95508C12.2811 8.81664 12.3256 8.68098 12.4102 8.57129L13.2676 7.45898C13.5255 7.12467 13.3671 6.63545 12.9619 6.5166L11.6143 6.12207C11.4814 6.08309 11.3663 5.99906 11.2881 5.88477L10.4961 4.72559Z" fill="#5E9EFF"/>
</svg>
