<svg width="18" height="18" viewBox="0 0 18 18" fill="none" xmlns="http://www.w3.org/2000/svg">
<path d="M13.3146 2.0408C13.7228 1.66877 14.3553 1.69809 14.7273 2.10628L16.7481 4.32354C17.1202 4.73173 17.0908 5.36422 16.6827 5.73624L5.21546 16.1875C4.19499 17.1175 2.61378 17.0442 1.68372 16.0238C0.75366 15.0033 0.826951 13.4221 1.84742 12.492L13.3146 2.0408Z" fill="#5E9EFF"/>
<path d="M3.76578 0.633626C3.84632 0.415972 4.15416 0.415972 4.2347 0.633626L4.98196 2.65305C5.00728 2.72148 5.06123 2.77543 5.12966 2.80075L7.14908 3.548C7.36674 3.62854 7.36674 3.93639 7.14908 4.01693L5.12966 4.76418C5.06123 4.7895 5.00728 4.84346 4.98196 4.91189L4.2347 6.93131C4.15416 7.14896 3.84632 7.14896 3.76578 6.93131L3.01852 4.91189C2.9932 4.84346 2.93925 4.7895 2.87082 4.76418L0.8514 4.01693C0.633745 3.93639 0.633745 3.62854 0.8514 3.548L2.87082 2.80075C2.93925 2.77543 2.9932 2.72148 3.01852 2.65305L3.76578 0.633626Z" fill="#5E9EFF"/>
<path d="M14.8596 12.786C14.9401 12.5683 15.2479 12.5683 15.3285 12.786L15.7951 14.047C15.8204 14.1154 15.8744 14.1694 15.9428 14.1947L17.2038 14.6613C17.4215 14.7419 17.4215 15.0497 17.2038 15.1302L15.9428 15.5969C15.8744 15.6222 15.8204 15.6761 15.7951 15.7446L15.3285 17.0056C15.2479 17.2232 14.9401 17.2232 14.8596 17.0056L14.3929 15.7446C14.3676 15.6761 14.3137 15.6222 14.2452 15.5969L12.9842 15.1302C12.7666 15.0497 12.7666 14.7419 12.9842 14.6613L14.2452 14.1947C14.3137 14.1694 14.3676 14.1154 14.3929 14.047L14.8596 12.786Z" fill="#5E9EFF"/>
</svg>
