<svg width="168" height="72" viewBox="0 0 168 72" fill="none" xmlns="http://www.w3.org/2000/svg">
<path d="M15.9502 17.1167C17.5701 17.1169 18.8828 18.4304 18.8828 20.0503V33.0669C18.8828 33.2705 18.948 33.4719 19.0919 33.6159L21.2658 35.7897C21.4101 35.9341 21.6122 35.9995 21.8164 35.9995H34.833C36.453 35.9995 37.7666 37.3131 37.7666 38.9331V51.9497C37.7666 53.5697 36.453 54.8833 34.833 54.8833H21.8164C20.1964 54.8832 18.8828 53.5697 18.8828 51.9497V38.9331C18.8828 38.7289 18.8174 38.5268 18.673 38.3825L16.4992 36.2086C16.3552 36.0647 16.1538 35.9995 15.9502 35.9995H2.93359C1.31367 35.9995 0.000165693 34.6868 0 33.0669V20.0503C0 18.4303 1.31357 17.1167 2.93359 17.1167H15.9502Z" fill="#5E9EFF"/>
<path d="M54.6094 47.672H65.6494V53H47.8894V19.496H54.6094V47.672ZM72.3687 23.24C71.1847 23.24 70.1927 22.872 69.3927 22.136C68.6247 21.368 68.2407 20.424 68.2407 19.304C68.2407 18.184 68.6247 17.256 69.3927 16.52C70.1927 15.752 71.1847 15.368 72.3687 15.368C73.5527 15.368 74.5287 15.752 75.2967 16.52C76.0967 17.256 76.4967 18.184 76.4967 19.304C76.4967 20.424 76.0967 21.368 75.2967 22.136C74.5287 22.872 73.5527 23.24 72.3687 23.24ZM75.6807 26.408V53H68.9607V26.408H75.6807ZM96.0961 26.024C99.2641 26.024 101.824 27.032 103.776 29.048C105.728 31.032 106.704 33.816 106.704 37.4V53H99.9841V38.312C99.9841 36.2 99.4561 34.584 98.4001 33.464C97.3441 32.312 95.9041 31.736 94.0801 31.736C92.2241 31.736 90.7521 32.312 89.6641 33.464C88.6081 34.584 88.0801 36.2 88.0801 38.312V53H81.3601V26.408H88.0801V29.72C88.9761 28.568 90.1121 27.672 91.4881 27.032C92.8961 26.36 94.4321 26.024 96.0961 26.024ZM127.878 53L118.854 41.672V53H112.134V17.48H118.854V37.688L127.782 26.408H136.518L124.806 39.752L136.614 53H127.878ZM142.614 23.24C141.43 23.24 140.438 22.872 139.638 22.136C138.87 21.368 138.486 20.424 138.486 19.304C138.486 18.184 138.87 17.256 139.638 16.52C140.438 15.752 141.43 15.368 142.614 15.368C143.798 15.368 144.774 15.752 145.542 16.52C146.342 17.256 146.742 18.184 146.742 19.304C146.742 20.424 146.342 21.368 145.542 22.136C144.774 22.872 143.798 23.24 142.614 23.24ZM145.926 26.408V53H139.206V26.408H145.926ZM159.429 31.928V44.792C159.429 45.688 159.637 46.344 160.053 46.76C160.501 47.144 161.237 47.336 162.261 47.336H165.381V53H161.157C155.493 53 152.661 50.248 152.661 44.744V31.928H149.493V26.408H152.661V19.832H159.429V26.408H165.381V31.928H159.429Z" fill="#5E9EFF"/>
</svg>
