<svg width="800" height="107" viewBox="0 0 800 107" fill="none" xmlns="http://www.w3.org/2000/svg">
<g clip-path="url(#clip0_2327_3521)">
<g clip-path="url(#clip1_2327_3521)">
<rect width="800" height="107" rx="12" fill="#E5F0FF"/>
<path d="M45.0304 38.8978V40.6796H42.413V49.6989H40.2376V32.0884H42.413V38.8978H45.0304ZM29.2017 45.3343V33.7942H31.3633V43.5387C33.7182 43.511 36.2182 43.297 38.884 42.7514L39.1188 44.5746C36.1354 45.1754 33.3177 45.3412 30.6865 45.3343H29.2017ZM54.2363 33.6008V41.9572H45.873V33.6008H54.2363ZM47.8896 49.395V43.7251H50.0512V47.634H59.8923V49.395H47.8896ZM48.0139 40.2307H52.1023V35.3412H48.0139V40.2307ZM57.0194 44.982V32.0884H59.2017V37.261H61.6672V39.0635H59.2017V44.982H57.0194ZM80.033 32.0884V35.6381H82.4985V37.4337H80.033V40.9558H77.8507V32.0884H80.033ZM66.2968 36.6257C66.283 34.2845 68.2996 32.6685 70.9929 32.6616C73.6725 32.6685 75.6614 34.2845 75.6683 36.6257C75.6614 38.9392 73.6725 40.5898 70.9929 40.5829C68.2996 40.5898 66.283 38.9392 66.2968 36.6257ZM68.417 36.6257C68.4031 37.9724 69.4943 38.8564 70.9929 38.8564C72.4708 38.8564 73.5551 37.9724 73.562 36.6257C73.5551 35.2928 72.4708 34.4296 70.9929 34.4365C69.4943 34.4296 68.4031 35.2928 68.417 36.6257ZM68.4791 43.3936V41.7086H80.033V46.3425H70.6476V47.7997H80.5855V49.5193H68.5067V44.761H77.8645V43.3936H68.4791ZM97.5261 32.0884V49.7265H95.3369V32.0884H97.5261ZM82.906 44.8715C87.5261 42.6754 89.667 39.6989 90.0538 35.6796H83.8038V33.9599H92.2637C92.2568 39.2155 90.2195 43.6768 84.0455 46.6119L82.906 44.8715ZM108.357 33.366C111.023 33.3729 112.936 35.7901 112.95 39.6022C112.936 43.442 111.023 45.8591 108.357 45.8522C105.685 45.8591 103.765 43.442 103.772 39.6022C103.765 35.7901 105.685 33.3729 108.357 33.366ZM105.864 39.6022C105.857 42.3163 106.879 43.8909 108.357 43.8909C109.863 43.8909 110.857 42.3163 110.857 39.6022C110.857 36.9088 109.863 35.3273 108.357 35.3273C106.879 35.3273 105.857 36.9088 105.864 39.6022ZM115.27 49.7265V32.0884H117.446V38.8702H120.167V40.6934H117.446V49.7265H115.27ZM134.38 32.0884V39.1326H136.831V40.9213H134.38V49.7265H132.197V32.0884H134.38ZM120.043 44.6851C122.536 42.047 123.351 39.25 123.523 35.721H120.754V33.9392H125.595C125.581 38.5663 124.939 42.4613 121.755 45.9075L120.043 44.6851ZM125.056 45.8453C127.563 42.8481 128.282 39.547 128.427 35.721H126.182V33.9392H130.478C130.464 38.6837 129.967 43.221 126.79 47.0539L125.056 45.8453ZM153.109 40.8108V42.5442H146.279V45.797H144.076V42.5442H136.969V40.8108H153.109ZM138.689 36.087C138.682 33.8633 141.217 32.4751 145.022 32.4682C148.834 32.4751 151.341 33.8633 151.348 36.087C151.341 38.3108 148.834 39.6851 145.022 39.6851C141.217 39.6851 138.682 38.3108 138.689 36.087ZM138.945 49.395V44.1533H141.127V47.6133H151.327V49.395H138.945ZM141.03 36.087C141.016 37.261 142.598 37.9378 145.022 37.9378C147.46 37.9378 149.027 37.261 149.027 36.087C149.027 34.8715 147.46 34.1948 145.022 34.1948C142.598 34.1948 141.016 34.8715 141.03 36.087ZM173.139 32.0884V49.7265H171.053V40.7831H169.251V48.884H167.2V32.3923H169.251V38.9945H171.053V32.0884H173.139ZM157.518 44.6022C160.149 43.1243 161.198 40.0373 161.198 36.5981V35.7555H158.056V34.0083H166.198V35.7555H163.305V36.5981C163.305 39.7334 164.361 42.6271 166.979 43.9807L165.722 45.6381C164.03 44.7334 162.925 43.1796 162.297 41.2597C161.703 43.4558 160.605 45.2238 158.864 46.2597L157.518 44.6022ZM188.781 36.674V38.4282H176.599V32.3923H178.761V36.674H188.781ZM174.507 41.8881V40.1202H190.618V41.8881H174.507ZM176.378 46.4116C176.378 44.3398 178.692 43.1657 182.524 43.1657C186.344 43.1657 188.636 44.3398 188.643 46.4116C188.636 48.4903 186.344 49.6575 182.524 49.6575C178.692 49.6575 176.378 48.4903 176.378 46.4116ZM178.588 46.4116C178.574 47.4337 179.962 47.9931 182.524 47.9931C185.059 47.9931 186.461 47.4337 186.475 46.4116C186.461 45.3688 185.059 44.8715 182.524 44.8577C179.962 44.8715 178.574 45.3688 178.588 46.4116ZM194.638 46.5912L193.008 52.0677H191.15L192.152 46.5912H194.638ZM214.551 32.1022V42.8688H212.376V32.1022H214.551ZM200.753 34.9337V33.1657H208.895V38.3384H202.914V40.2307C205.932 40.2169 208.101 40.1202 210.622 39.7265L210.898 41.4807C208.108 41.9296 205.711 42.0124 202.293 42.0124H200.787V36.7017H206.747V34.9337H200.753ZM202.583 46.4461C202.583 44.3605 204.862 43.1796 208.619 43.1796C212.369 43.1796 214.662 44.3605 214.662 46.4461C214.662 48.511 212.369 49.7196 208.619 49.7127C204.862 49.7196 202.583 48.511 202.583 46.4461ZM204.738 46.4461C204.738 47.4751 206.126 48.0138 208.619 48.0069C211.105 48.0138 212.486 47.4751 212.493 46.4461C212.486 45.424 211.105 44.8785 208.619 44.8785C206.126 44.8785 204.738 45.424 204.738 46.4461ZM231.209 32.1022V43.884H229.047V32.1022H231.209ZM216.858 36.9434L223.294 36.7086C223.508 36.163 223.633 35.5829 223.695 34.9751H217.749V33.2417H225.988C225.974 38.0829 223.667 41.4461 217.728 43.2901L216.899 41.5635C219.606 40.7555 221.361 39.6436 222.417 38.2762L217.182 38.6699L216.858 36.9434ZM218.398 47.9448C221.982 47.4061 224.185 45.4102 224.185 43.1657V42.6961H226.457V43.1657C226.443 45.4102 228.557 47.3508 232.12 47.9171L231.209 49.6436C228.46 49.1395 226.347 47.8412 225.304 45.9765C224.24 47.855 222.079 49.1809 219.261 49.6713L218.398 47.9448ZM248.453 32.0884V49.7265H246.368V32.0884H248.453ZM233.405 39.7127C233.398 35.8315 234.903 33.4213 237.217 33.4282C239.351 33.4213 240.808 35.4309 241.057 38.732H242.763V32.3923H244.828V48.884H242.763V40.4793H241.071C240.87 43.9323 239.392 46.0387 237.217 46.0387C234.903 46.0387 233.398 43.6146 233.405 39.7127ZM235.415 39.7127C235.401 42.4751 236.084 43.9669 237.217 43.9599C238.377 43.9669 239.082 42.4751 239.082 39.7127C239.082 36.9641 238.377 35.4655 237.217 35.4724C236.084 35.4655 235.401 36.9641 235.415 39.7127ZM256.43 36.3287C256.43 39.6022 257.997 42.8204 260.815 44.0635L259.496 45.797C257.5 44.8163 256.098 42.9448 255.339 40.6381C254.572 43.076 253.136 45.0994 251.105 46.1215L249.738 44.3605C252.611 43.0207 254.213 39.616 254.227 36.3287V33.5041H256.43V36.3287ZM258.861 39.547V37.7928H262.555V32.0884H264.71V49.768H262.555V39.547H258.861ZM285.41 32.0884V42.2472H283.262V32.0884H285.41ZM271.646 40.7901V32.7997H273.794V35.203H277.993V32.7997H280.155V40.7901H271.646ZM272.696 48.0691C276.018 47.7721 278.166 46.3564 278.435 44.989H273.414V43.3246H278.497V41.7983H280.673V43.3246H285.776V44.989H280.742C281.025 46.3011 283.138 47.7307 286.439 48.0483L285.686 49.692C282.82 49.3812 280.659 48.2693 279.588 46.8191C278.525 48.3108 276.322 49.395 273.435 49.692L272.696 48.0691ZM273.794 39.0773H277.993V36.8605H273.794V39.0773ZM295.459 32.3577C299.478 32.3577 301.812 33.4282 301.812 35.3757C301.812 37.3508 299.478 38.4213 295.459 38.4282C291.439 38.4213 289.091 37.3508 289.098 35.3757C289.091 33.4282 291.439 32.3577 295.459 32.3577ZM287.427 41.1077V39.3743H303.511V41.1077H287.427ZM289.319 43.9047V42.2887H301.508V46.6119H291.467V47.924H301.992V49.5815H289.34V45.0718H299.367V43.9047H289.319ZM291.37 35.3757C291.356 36.3564 292.765 36.8052 295.459 36.8122C298.18 36.8052 299.582 36.3564 299.582 35.3757C299.582 34.471 298.18 33.9599 295.459 33.9599C292.765 33.9599 291.356 34.471 291.37 35.3757ZM311.007 32.8619V35.1064H315.123V32.8619H317.291V40.5552H308.859V32.8619H311.007ZM310.634 43.518V41.826H322.188V46.4461H312.802V47.855H322.74V49.5815H310.661V44.8715H320.019V43.518H310.634ZM311.007 38.8356H315.123V36.7569H311.007V38.8356ZM320.005 41.1146V32.0884H322.188V35.6519H324.653V37.4199H322.188V41.1146H320.005ZM333.555 34.8923V36.6395H324.909V34.8923H328.182V32.5925H330.33V34.8923H333.555ZM325.406 41.6809C325.399 39.2707 327.022 37.5649 329.26 37.558C331.504 37.5649 333.106 39.2707 333.113 41.6809C333.106 44.1188 331.504 45.8315 329.26 45.8315C327.022 45.8315 325.399 44.1188 325.406 41.6809ZM327.319 41.6809C327.312 43.1036 328.113 43.9876 329.26 43.9807C330.385 43.9876 331.193 43.1036 331.2 41.6809C331.193 40.2859 330.385 39.3674 329.26 39.3674C328.113 39.3674 327.312 40.2859 327.319 41.6809ZM334.287 48.9323V32.4613H336.324V39.3536H338.058V32.0884H340.123V49.7265H338.058V41.1077H336.324V48.9323H334.287ZM345.855 32.3646V33.7389H353.479V32.3646H355.641V38.2348H350.703V39.5815H357.713V41.3011H341.628V39.5815H348.555V38.2348H343.707V32.3646H345.855ZM343.521 44.0152V42.4061H355.71V46.6878H345.668V47.924H356.193V49.5815H343.541V45.1685H353.569V44.0152H343.521ZM345.855 36.6119H353.479V35.3204H345.855V36.6119ZM372.388 32.0884V39.1326H374.84V40.9213H372.388V49.7265H370.206V32.0884H372.388ZM358.051 44.6851C360.544 42.047 361.359 39.25 361.532 35.721H358.762V33.9392H363.604C363.59 38.5663 362.948 42.4613 359.764 45.9075L358.051 44.6851ZM363.065 45.8453C365.572 42.8481 366.29 39.547 366.435 35.721H364.191V33.9392H368.486C368.472 38.6837 367.975 43.221 364.798 47.0539L363.065 45.8453ZM391.138 45.8108V47.5925H374.999V45.8108H378.728V41.3425C377.319 40.5345 376.47 39.2707 376.477 37.703C376.47 34.8923 379.225 33.0345 383.03 33.0276C386.836 33.0345 389.612 34.8923 389.612 37.703C389.612 39.2431 388.783 40.4862 387.416 41.3011V45.8108H391.138ZM378.604 37.703C378.604 39.5124 380.385 40.6657 383.03 40.6657C385.655 40.6657 387.478 39.5124 387.478 37.703C387.478 35.866 385.655 34.7541 383.03 34.761C380.385 34.7541 378.604 35.866 378.604 37.703ZM380.876 45.8108H385.22V42.1367C384.543 42.2818 383.811 42.3577 383.03 42.3577C382.264 42.3577 381.546 42.2818 380.876 42.1367V45.8108ZM394.674 43.6699C394.688 41.1768 395.392 40.4171 396.615 39.6506C397.457 39.1257 398.093 38.4696 398.093 37.4959C398.093 36.3978 397.243 35.7003 396.18 35.7003C395.206 35.7003 394.267 36.3218 394.198 37.6202H391.753C391.829 35.0028 393.783 33.663 396.194 33.663C398.825 33.663 400.641 35.134 400.641 37.4544C400.641 39.0428 399.847 40.0787 398.583 40.8384C397.45 41.5221 396.981 42.1989 396.96 43.6699V43.8494H394.674V43.6699ZM394.363 46.6395C394.35 45.8108 395.04 45.1409 395.876 45.1409C396.691 45.1409 397.381 45.8108 397.388 46.6395C397.381 47.4751 396.691 48.1519 395.876 48.1519C395.04 48.1519 394.35 47.4751 394.363 46.6395Z" fill="#558EE5"/>
<path d="M33.2656 65.9531C33.2656 67.7969 34.625 69.4844 36.6875 70.2031L36.0625 71.1562C34.4766 70.5938 33.2656 69.4531 32.6719 68.0156C32.0781 69.5938 30.8047 70.8203 29.1719 71.4219L28.5156 70.4688C30.5938 69.7344 32.0469 67.9375 32.0625 65.9531V65.3594H28.8906V64.3594H36.3906V65.3594H33.2656V65.9531ZM39.4219 63.375V67.0469H41.5156V68.0938H39.4219V71.75H38.2031V63.375H39.4219ZM39.4219 72.4844V77.2656H38.2031V73.4844H30.3281V72.4844H39.4219ZM53.0513 64.7812V66.1719C53.0356 67.875 53.0356 69.7812 52.5356 72.5781L51.2856 72.4375C51.8169 69.7812 51.8169 67.8281 51.8169 66.1719V65.7969H43.2544V64.7812H53.0513ZM54.5669 74.2812V75.2969H41.9106V74.2812H46.8794V69.3125H48.0825V74.2812H54.5669ZM71.5131 74.4375V75.4531H58.7944V74.4375H64.4819V71.0312H65.685V74.4375H71.5131ZM65.7162 65.3906C65.7162 67.7188 68.4662 69.75 70.8881 70.1719L70.3412 71.1875C68.2241 70.7578 65.9897 69.3203 65.0912 67.3125C64.1772 69.3125 61.9584 70.7578 59.8412 71.1875L59.2944 70.1719C61.7162 69.75 64.435 67.7188 64.435 65.3906V64.3281H65.7162V65.3906ZM84.8613 74.4375V75.4531H72.1425V74.4375H77.83V71.0312H79.0331V74.4375H84.8613ZM79.0644 65.3906C79.0644 67.7188 81.8144 69.75 84.2363 70.1719L83.6894 71.1875C81.5722 70.7578 79.3378 69.3203 78.4394 67.3125C77.5253 69.3125 75.3066 70.7578 73.1894 71.1875L72.6425 70.1719C75.0644 69.75 77.7831 67.7188 77.7831 65.3906V64.3281H79.0644V65.3906ZM96.35 63.3906V67.9688H98.4437V69H96.35V73.7969H95.1312V63.3906H96.35ZM93.8031 65.0938V66.0938H85.5219V65.0938H89.0531V63.3906H90.2719V65.0938H93.8031ZM89.6625 66.8594C91.6469 66.8594 92.9906 67.875 93.0062 69.4531C92.9906 71.0156 91.6469 72.0156 89.6625 72.0156C87.6625 72.0156 86.3031 71.0156 86.3187 69.4531C86.3031 67.875 87.6625 66.8594 89.6625 66.8594ZM89.6625 67.8281C88.35 67.8281 87.475 68.4688 87.4906 69.4531C87.475 70.4375 88.35 71.0625 89.6625 71.0469C90.9594 71.0625 91.8344 70.4375 91.85 69.4531C91.8344 68.4688 90.9594 67.8281 89.6625 67.8281ZM96.9906 75.9375V76.9688H87.6625V72.9688H88.8656V75.9375H96.9906ZM109.296 65.4219C109.296 67.7969 112.015 69.9219 114.437 70.375L113.874 71.4062C111.781 70.9219 109.57 69.4297 108.671 67.375C107.773 69.4219 105.57 70.9141 103.468 71.4062L102.906 70.375C105.312 69.9062 108.015 67.8125 108.015 65.4219V64.3594H109.296V65.4219ZM115.093 74.3594V75.375H102.374V74.3594H115.093ZM127.176 63.375V70.6406H125.973V63.375H127.176ZM127.176 71.3438V74.5781H119.394V76.125H127.676V77.1094H118.176V73.6719H125.973V72.3125H118.16V71.3438H127.176ZM123.098 64C123.098 67.4688 120.879 69.9062 116.582 70.9844L116.129 70.0156C118.433 69.4375 120.012 68.4922 120.91 67.2812L116.238 67.6406L116.035 66.625L121.426 66.3906C121.621 65.9531 121.738 65.4766 121.785 64.9844H116.723V64H123.098ZM140.289 69.8906V70.8906H135.993V74.4844H141.789V75.5156H129.071V74.4844H134.789V70.8906H130.696V64.5156H140.149V65.5156H131.93V69.8906H140.289ZM152.408 64.4688V65.3906C152.392 66.375 152.392 67.6094 152.079 69.2344L150.923 69.1094C151.228 67.5703 151.236 66.4219 151.251 65.4844H146.595V64.4688H152.408ZM149.439 67.625V70.4531C150.681 70.4062 151.947 70.3203 153.017 70.1875L153.079 71.0781C150.814 71.4844 147.861 71.5469 145.954 71.5469L145.829 70.5156C146.533 70.5156 147.376 70.5078 148.283 70.4844V67.625H149.439ZM157.751 63.3906V73.9375H156.548V68.8438H154.845V73.5312H153.704V63.6406H154.845V67.8125H156.548V63.3906H157.751ZM158.126 75.9375V76.9688H148.329V72.8281H149.579V75.9375H158.126ZM170.162 63.375V66.5312H172.256V67.5625H170.162V70.5625H168.943V63.375H170.162ZM161.974 71.8438V75.9219C162.779 75.8984 163.849 75.7891 164.834 75.4531L165.021 76.4375C163.662 76.8906 162.349 76.9688 161.443 76.9688H160.787V71.8438H161.974ZM171.553 72.0625V72.9844H164.537V72.0625H167.459V70.8281H168.662V72.0625H171.553ZM168.037 73.4844C169.537 73.5 170.631 74.2344 170.646 75.375C170.631 76.5156 169.537 77.25 168.037 77.2656C166.537 77.25 165.443 76.5156 165.459 75.375C165.443 74.2344 166.537 73.5 168.037 73.4844ZM168.037 74.3594C167.178 74.3594 166.568 74.7656 166.568 75.375C166.568 75.9844 167.178 76.3906 168.037 76.375C168.896 76.3906 169.521 75.9844 169.521 75.375C169.521 74.7656 168.896 74.3594 168.037 74.3594ZM164.037 66.0938C164.037 67.5625 165.521 68.8438 167.537 69.3281L167.021 70.2812C165.388 69.875 164.107 68.9766 163.49 67.7812C162.881 69.1875 161.545 70.2344 159.834 70.7031L159.271 69.7344C161.334 69.1875 162.834 67.7812 162.834 66.0938V65.8281H159.693V64.8125H162.834V63.3281H164.068V64.8125H167.178V65.8281H164.037V66.0938ZM176.369 64.4531C178.416 64.4688 179.869 66.3438 179.885 69.2969C179.869 72.25 178.416 74.125 176.369 74.125C174.307 74.125 172.869 72.25 172.869 69.2969C172.869 66.3438 174.307 64.4688 176.369 64.4531ZM176.369 65.5469C174.994 65.5625 174.026 67.0312 174.026 69.2969C174.026 71.5625 174.994 73.0312 176.369 73.0312C177.76 73.0312 178.697 71.5625 178.697 69.2969C178.697 67.0312 177.76 65.5625 176.369 65.5469ZM183.401 63.375V68.9219H185.729V69.9844H183.401V77.2656H182.182V63.375H183.401ZM198.717 74.4531V75.4844H185.999V74.4531H189.155V70.7031C187.967 70.0859 187.249 69.0859 187.249 67.8281C187.249 65.6719 189.358 64.2656 192.327 64.25C195.296 64.2656 197.405 65.6719 197.405 67.8281C197.405 69.0625 196.71 70.0547 195.561 70.6719V74.4531H198.717ZM192.327 65.2656C190.046 65.25 188.436 66.2812 188.436 67.8281C188.436 69.375 190.046 70.4219 192.327 70.4219C194.592 70.4219 196.217 69.375 196.217 67.8281C196.217 66.2812 194.592 65.25 192.327 65.2656ZM190.358 74.4531H194.327V71.1406C193.725 71.3047 193.053 71.3906 192.327 71.3906C191.616 71.3906 190.952 71.3125 190.358 71.1562V74.4531ZM200.816 76.0938C200.269 76.0938 199.8 75.6406 199.816 75.0781C199.8 74.5312 200.269 74.0781 200.816 74.0781C201.363 74.0781 201.816 74.5312 201.816 75.0781C201.816 75.6406 201.363 76.0938 200.816 76.0938ZM217.949 63.375V73.7188H216.715V69.6875H214.34V68.6562H216.715V67.0469H214.34V66.0312H216.715V63.375H217.949ZM214.231 64.5156V65.5156H212.809V70.375C213.457 70.3359 214.082 70.2891 214.684 70.2188L214.746 71.1406C212.043 71.5625 208.871 71.6094 206.621 71.6094L206.465 70.5625C207.02 70.5625 207.621 70.5547 208.262 70.5469V65.5156H206.856V64.5156H214.231ZM218.324 75.9375V76.9688H208.996V72.8594H210.231V75.9375H218.324ZM209.449 70.5156C210.16 70.5078 210.895 70.4844 211.621 70.4531V65.5156H209.449V70.5156ZM230.532 63.375V69.1094H232.86V70.125H230.532V77.2656H229.313V63.375H230.532ZM227.969 65.6094V66.625H219.704V65.6094H223.282V63.5469H224.501V65.6094H227.969ZM223.907 67.7812C225.876 67.7812 227.298 69.0938 227.313 70.9688C227.298 72.8438 225.876 74.1562 223.907 74.1562C221.923 74.1562 220.485 72.8438 220.501 70.9688C220.485 69.0938 221.923 67.7812 223.907 67.7812ZM223.907 68.8125C222.61 68.8125 221.657 69.7188 221.673 70.9688C221.657 72.2344 222.61 73.125 223.907 73.1094C225.188 73.125 226.126 72.2344 226.141 70.9688C226.126 69.7188 225.188 68.8125 223.907 68.8125ZM245.021 63.375V77.2656H243.849V63.375H245.021ZM242.099 63.75V76.5625H240.927V70.0781H237.989C237.138 71.6953 235.802 73.125 233.864 74.2656L233.146 73.375C236.169 71.5859 237.685 69.0781 237.911 66.1719H233.739V65.1562H239.13C239.122 66.5234 238.903 67.8438 238.443 69.0781H240.927V63.75H242.099ZM254.842 65.9375C254.842 67.75 256.232 69.4688 258.264 70.1719L257.623 71.1406C256.053 70.5781 254.842 69.4141 254.248 67.9844C253.647 69.5859 252.365 70.8672 250.717 71.4688L250.076 70.5C252.123 69.7656 253.607 67.9062 253.607 65.9531V65.3438H250.467V64.3438H257.951V65.3438H254.842V65.9375ZM261.529 72.4375V77.2656H260.295V73.4531H252.186V72.4375H261.529ZM261.529 63.375V71.7031H260.295V68.0469H257.514V67.0156H260.295V63.375H261.529ZM267.096 64.4531C268.987 64.4688 270.346 66.0859 270.549 68.6875H273.659V63.375H274.878V77.2969H273.659V69.7031H270.565C270.417 72.4219 269.034 74.125 267.096 74.125C265.049 74.125 263.612 72.25 263.612 69.2969C263.612 66.3438 265.049 64.4688 267.096 64.4531ZM267.096 65.5469C265.721 65.5625 264.784 67.0312 264.784 69.2969C264.784 71.5625 265.721 73.0312 267.096 73.0312C268.456 73.0312 269.409 71.5625 269.409 69.2969C269.409 67.0312 268.456 65.5625 267.096 65.5469ZM289.429 74.4688V75.4844H276.71V74.4688H282.429V71.4688H278.21V64.3594H279.444V66.875H286.663V64.3594H287.866V71.4688H283.632V74.4688H289.429ZM279.444 70.4688H286.663V67.875H279.444V70.4688ZM294.183 67.3281C294.183 69.5312 295.261 71.9219 297.105 73.0156L296.402 73.9688C295.066 73.1562 294.105 71.6719 293.621 69.9844C293.105 71.8281 292.074 73.4141 290.683 74.2656L289.902 73.3438C291.824 72.2188 292.996 69.75 292.996 67.375V64.6875H294.183V67.3281ZM301.964 63.375V77.2656H300.777V63.375H301.964ZM299.089 63.6719V76.5625H297.933V69.4062H295.574V68.3594H297.933V63.6719H299.089ZM316.125 74.4531V75.4844H303.406V74.4531H306.562V70.7031C305.375 70.0859 304.656 69.0859 304.656 67.8281C304.656 65.6719 306.766 64.2656 309.734 64.25C312.703 64.2656 314.812 65.6719 314.812 67.8281C314.812 69.0625 314.117 70.0547 312.969 70.6719V74.4531H316.125ZM309.734 65.2656C307.453 65.25 305.844 66.2812 305.844 67.8281C305.844 69.375 307.453 70.4219 309.734 70.4219C312 70.4219 313.625 69.375 313.625 67.8281C313.625 66.2812 312 65.25 309.734 65.2656ZM307.766 74.4531H311.734V71.1406C311.133 71.3047 310.461 71.3906 309.734 71.3906C309.023 71.3906 308.359 71.3125 307.766 71.1562V74.4531ZM318.223 76.0938C317.676 76.0938 317.207 75.6406 317.223 75.0781C317.207 74.5312 317.676 74.0781 318.223 74.0781C318.77 74.0781 319.223 74.5312 319.223 75.0781C319.223 75.6406 318.77 76.0938 318.223 76.0938Z" fill="#5E9EFF"/>
</g>
<g clip-path="url(#clip2_2327_3521)">
<rect x="624.215" y="15.5488" width="106" height="82" rx="8" fill="white"/>
<rect x="623.898" y="15.5486" width="106" height="134" rx="8" fill="white"/>
<line x1="661.398" y1="38.0486" x2="714.398" y2="38.0486" stroke="#B5CEFF" stroke-width="5" stroke-linecap="round"/>
<line x1="661.398" y1="59.0486" x2="714.398" y2="59.0486" stroke="#B5CEFF" stroke-width="5" stroke-linecap="round"/>
<line x1="661.398" y1="80.0486" x2="714.398" y2="80.0486" stroke="#B5CEFF" stroke-width="5" stroke-linecap="round"/>
<rect x="636.898" y="31.5486" width="13" height="13" rx="2" fill="#464756"/>
<path d="M646.631 36.0486L642.632 40.0486L640.166 37.5721" stroke="white" stroke-width="1.5" stroke-linecap="round" stroke-linejoin="round"/>
<rect x="636.898" y="52.5486" width="13" height="13" rx="2" fill="#B5CEFF"/>
<rect x="636.898" y="73.5486" width="13" height="13" rx="2" fill="#B5CEFF"/>
<g filter="url(#filter0_f_2327_3521)">
<rect x="597.898" y="96.5486" width="157" height="20" fill="#E5F0FF" fill-opacity="0.6"/>
</g>
<g filter="url(#filter1_f_2327_3521)">
<path fill-rule="evenodd" clip-rule="evenodd" d="M746.922 18.8282C750.361 16.0548 755.468 16.5355 758.329 19.9024L771.239 35.0977C774.1 38.4646 773.631 43.4421 770.192 46.2159L721.793 85.2491C721.789 85.2437 721.754 85.1918 721.692 85.0967C721.454 85.2498 721.175 85.3586 720.861 85.4014L691.114 89.458C690.335 89.5642 689.639 89.2307 689.217 88.6914C688.76 88.1932 688.554 87.4776 688.795 86.7598L691.979 77.2442L692.082 77.3653L698.278 58.8535C698.305 58.7719 698.338 58.6939 698.374 58.6192C698.318 58.6264 698.263 58.6342 698.208 58.6426C698.309 58.3804 698.459 58.1554 698.641 57.9717C698.563 57.9002 698.522 57.8614 698.522 57.8614L746.922 18.8282Z" fill="url(#paint0_linear_2327_3521)"/>
</g>
<path d="M706.407 67.961C706.96 66.5381 708.839 66.234 709.812 67.4098L724.022 84.5758C724.989 85.7441 724.355 87.5218 722.867 87.8137L700.266 92.2469C698.72 92.5502 697.446 91.0291 698.017 89.5601L706.407 67.961Z" fill="#B5CEFF"/>
<path d="M700.189 92.1536C698.643 92.4568 697.37 90.9358 697.94 89.467L700.605 82.6067L707.346 90.7499L700.189 92.1536Z" fill="#2B3F63"/>
<path d="M746.515 33.8862C749.919 31.0688 754.962 31.544 757.779 34.9474L764.802 43.4317C767.62 46.8352 767.145 51.8782 763.741 54.6955L724.034 87.5652C724.034 87.5652 719.635 80.3125 716.173 76.1632C712.855 72.1863 706.808 66.7559 706.808 66.7559L746.515 33.8862Z" fill="#5E9EFF"/>
</g>
</g>
<defs>
<filter id="filter0_f_2327_3521" x="577.898" y="76.5486" width="197" height="60.0002" filterUnits="userSpaceOnUse" color-interpolation-filters="sRGB">
<feFlood flood-opacity="0" result="BackgroundImageFix"/>
<feBlend mode="normal" in="SourceGraphic" in2="BackgroundImageFix" result="shape"/>
<feGaussianBlur stdDeviation="10" result="effect1_foregroundBlur_2327_3521"/>
</filter>
<filter id="filter1_f_2327_3521" x="678.693" y="7.02588" width="104.418" height="92.4519" filterUnits="userSpaceOnUse" color-interpolation-filters="sRGB">
<feFlood flood-opacity="0" result="BackgroundImageFix"/>
<feBlend mode="normal" in="SourceGraphic" in2="BackgroundImageFix" result="shape"/>
<feGaussianBlur stdDeviation="5" result="effect1_foregroundBlur_2327_3521"/>
</filter>
<linearGradient id="paint0_linear_2327_3521" x1="773.112" y1="58.8295" x2="731.693" y2="90.5115" gradientUnits="userSpaceOnUse">
<stop stop-color="#E5F0FF" stop-opacity="0"/>
<stop offset="0.539615" stop-color="white"/>
</linearGradient>
<clipPath id="clip0_2327_3521">
<rect width="800" height="107" fill="white"/>
</clipPath>
<clipPath id="clip1_2327_3521">
<rect width="800" height="107" fill="white"/>
</clipPath>
<clipPath id="clip2_2327_3521">
<rect width="153" height="107" fill="white" transform="translate(617)"/>
</clipPath>
</defs>
</svg>
